mtllib Arwing 2.0.mtl
v 4.991608 7.022876 0.5340373
v 4.992083 7.022877 0.5343825
v 4.991901 7.022877 0.5349414
v 4.991313 7.022877 0.5349414
v 4.991131 7.022877 0.5343825
v 5 3.302544 9.155344E-02
v 5.475528 2.977123 0.3596347
v 5.293892 2.977123 0.9045094
v 4.706107 2.977123 0.9045089
v 4.524472 2.977123 0.3596347
v 4.530627 2.977124 0.359395
v 4.615289 2.977124 0.691931
v 5 2.977123 0.9045091
v 5.38471 2.977124 0.6919312
v 5.469374 2.977123 0.359395
v 5 2.177582 0.7399009
v 4.751993 3.265831 0.4166347
v 5 2.798478 0.6390504
v 5.248007 3.265831 0.4166347
vn 1.958834E-04 0.9999999 -4.653574E-04
vn -0.8807319 -0.4171707 0.2242318
vn -0.455347 -0.3370304 0.8240568
vn 0.4553466 -0.3370302 0.8240572
vn 0.8807319 -0.4171686 0.2242358
vn 0.5396461 9.981365E-02 -0.8359541
vn 0.9435542 0.103812 0.3145292
vn -7.231377E-07 9.096833E-02 0.9958538
vn -0.9439311 9.993719E-02 0.3146533
vn -0.538596 9.749612E-02 -0.8369043
vn -4.519446E-07 -0.6354925 -0.7721071
vn -4.643437E-07 -0.4297233 -0.9029606
vn 0.4617312 -0.1542498 -0.8735052
vn -0.4617311 -0.1542498 -0.8735053
vn -1.235033E-07 -0.1944766 0.9809071
g Cylinder
usemtl mat_0_0
f 5//1 4//1 3//1 2//1 1//1
f 11//2 16//2 12//2 10//2
f 12//3 16//3 13//3 9//3
f 13//4 16//4 14//4 8//4
f 14//5 16//5 15//5 7//5
f 2//6 7//6 15//6 6//6 1//6
f 3//7 8//7 14//7 7//7 2//7
f 4//8 9//8 13//8 8//8 3//8
f 5//9 10//9 12//9 9//9 4//9
f 1//10 6//10 11//10 10//10 5//10
f 11//11 6//11 15//11
f 18//13 16//13 11//13 17//13
f 19//14 15//14 16//14 18//14
f 17//15 11//15 15//15 19//15
usemtl mat_0_1
f 19//12 18//12 17//12
v 3.925324 2.24463 2.026893
v 4.285652 3.808104 0.8007085
v 3.994287 3.222202 0.3504868
v 4.577018 3.222202 0.3504868
vn -0.9273 0.3386904 0.1593558
vn 3.746172E-07 -0.8638522 -0.5037433
vn 0.8985683 0.1232187 0.4211688
vn -1.384266E-07 0.6093093 -0.7929326
g Cone
usemtl mat_1_0
f 21//16 22//16 20//16
f 22//17 23//17 20//17
f 23//18 21//18 20//18
f 21//19 23//19 22//19
v 2.152112 -0.2848476 8.172083E-02
v 4.284568 3.045789 5.792999E-02
v 4.572434 3.223402 0.3708929
v 3.9967 3.223401 0.3708929
vn 0.7620154 -0.4909006 -0.4223141
vn 6.465505E-08 -8.214777E-02 0.9966202
vn -0.5743352 0.3624778 -0.7339952
vn -6.516315E-07 0.8697041 -0.4935734
g Cone_0
usemtl mat_2_0
f 25//20 26//20 24//20
f 26//21 27//21 24//21
f 27//22 25//22 24//22
f 25//23 27//23 26//23
v 6.075742 2.244635 2.026903
v 5.715414 3.808109 0.8007193
v 6.006779 3.222207 0.350498
v 5.424048 3.222208 0.3504984
vn 0.9272999 0.3386905 0.1593559
vn -7.161617E-07 -0.8638524 -0.5037435
vn -0.8985681 0.1232189 0.4211691
vn -3.262889E-07 0.6093086 -0.792933
g Cone_1
usemtl mat_3_0
f 28//24 30//24 29//24
f 28//25 31//25 30//25
f 28//26 29//26 31//26
f 30//27 31//27 29//27
v 7.856847 -0.2848477 8.172083E-02
v 5.724391 3.045789 5.792999E-02
v 5.436524 3.223402 0.3708929
v 6.012259 3.223401 0.3708929
vn -0.7620146 -0.4909 -0.4223162
vn -6.35298E-08 -8.214778E-02 0.9966202
vn 0.5743356 0.3624781 -0.7339947
vn 7.015506E-07 0.8697041 -0.4935734
g Cone_2
usemtl mat_4_0
f 32//28 34//28 33//28
f 32//29 35//29 34//29
f 32//30 33//30 35//30
f 34//31 35//31 33//31
